<?xml version="1.0" standalone="no"?>
<!DOCTYPE svg PUBLIC "-//W3C//DTD SVG 20010904//EN"
 "http://www.w3.org/TR/2001/REC-SVG-20010904/DTD/svg10.dtd">
<svg version="1.0" xmlns="http://www.w3.org/2000/svg"
 width="464.000000pt" height="458.000000pt" viewBox="0 0 464.000000 458.000000"
 preserveAspectRatio="xMidYMid meet">

<g transform="translate(0.000000,458.000000) scale(0.100000,-0.100000)"
fill="#000000" stroke="none">
<path d="M2040 4321 c-436 -67 -817 -256 -1133 -560 -342 -330 -550 -732 -623
-1206 -23 -150 -23 -441 0 -592 44 -292 143 -562 292 -804 342 -552 926 -914
1583 -979 755 -75 1518 293 1937 935 162 250 264 513 316 825 27 163 29 452 4
615 -36 232 -104 444 -207 646 -270 531 -757 925 -1325 1074 -249 66 -593 84
-844 46z m1458 -902 c62 -30 95 -85 100 -163 5 -78 -20 -133 -79 -176 -81 -59
-185 -49 -255 25 -157 162 30 412 234 314z m-1650 -279 c70 -43 92 -128 49
-191 -57 -86 -178 -88 -233 -4 -77 118 64 268 184 195z m1219 -88 c101 -32
150 -67 313 -227 85 -83 176 -166 202 -184 139 -93 326 -154 532 -172 66 -6
122 -12 124 -14 9 -9 -151 -77 -213 -90 -239 -50 -549 34 -767 206 -14 12 -30
19 -36 15 -14 -8 -273 -351 -311 -411 -20 -32 -31 -62 -31 -86 0 -47 29 -74
212 -197 246 -166 361 -308 413 -507 35 -138 11 -375 -58 -550 l-32 -80 -6
170 c-11 285 -64 437 -198 574 -89 91 -188 150 -399 236 -220 89 -269 114
-308 157 -62 65 -68 162 -19 303 32 90 75 158 213 340 93 123 172 246 172 269
0 8 -82 35 -150 50 -220 49 -414 19 -652 -100 -66 -33 -108 -48 -108 -41 0 7
13 33 28 58 80 126 263 222 514 270 219 42 451 46 565 11z m-1554 -157 c94
-24 136 -52 252 -165 177 -172 228 -199 440 -235 72 -12 130 -26 130 -30 0 -5
-22 -20 -49 -34 -41 -21 -67 -26 -150 -29 -156 -6 -286 33 -423 126 l-58 40
-100 -128 c-55 -71 -110 -148 -123 -173 -33 -64 -21 -84 108 -170 145 -97 230
-184 277 -283 34 -72 38 -88 41 -181 5 -114 -13 -214 -52 -298 l-23 -50 -6
140 c-6 158 -25 234 -77 315 -63 98 -141 150 -350 235 -214 87 -256 131 -229
242 22 88 95 216 238 413 l61 85 -72 24 c-143 47 -320 31 -500 -45 -33 -14
-62 -23 -65 -21 -10 10 106 116 152 139 152 76 444 118 578 83z m-236 -950
c32 -32 35 -39 30 -78 -5 -34 -14 -50 -54 -85 -121 -108 -338 -251 -575 -380
-60 -33 -78 -39 -87 -29 -8 10 60 84 287 310 270 270 301 297 331 297 24 0 42
-9 68 -35z m1322 -200 c90 -46 126 -168 70 -239 -23 -29 -319 -242 -559 -403
-213 -142 -439 -266 -458 -251 -10 9 -7 17 16 42 371 401 738 773 826 837 44
33 65 35 105 14z"/>
</g>
</svg>
