<?xml version="1.0" standalone="no"?>
<!DOCTYPE svg PUBLIC "-//W3C//DTD SVG 20010904//EN"
 "http://www.w3.org/TR/2001/REC-SVG-20010904/DTD/svg10.dtd">
<svg version="1.0" xmlns="http://www.w3.org/2000/svg"
 width="990.000000pt" height="763.000000pt" viewBox="0 0 990.000000 763.000000"
 preserveAspectRatio="xMidYMid meet">

<g transform="translate(0.000000,763.000000) scale(0.100000,-0.100000)"
fill="#000000" stroke="none">
<path d="M4670 7201 c-436 -67 -817 -256 -1133 -560 -342 -330 -550 -732 -623
-1206 -23 -150 -23 -441 0 -592 44 -292 143 -562 292 -804 342 -552 926 -914
1583 -979 755 -75 1518 293 1937 935 162 250 264 513 316 825 27 163 29 452 4
615 -36 232 -104 444 -207 646 -270 531 -757 925 -1325 1074 -249 66 -593 84
-844 46z m1458 -902 c62 -30 95 -85 100 -163 5 -78 -20 -133 -79 -176 -81 -59
-185 -49 -255 25 -157 162 30 412 234 314z m-1650 -279 c70 -43 92 -128 49
-191 -57 -86 -178 -88 -233 -4 -77 118 64 268 184 195z m1219 -88 c101 -32
150 -67 313 -227 85 -83 176 -166 202 -184 139 -93 326 -154 532 -172 66 -6
122 -12 124 -14 9 -9 -151 -77 -213 -90 -239 -50 -549 34 -767 206 -14 12 -30
19 -36 15 -14 -8 -273 -351 -311 -411 -20 -32 -31 -62 -31 -86 0 -47 29 -74
212 -197 246 -166 361 -308 413 -507 35 -138 11 -375 -58 -550 l-32 -80 -6
170 c-11 285 -64 437 -198 574 -89 91 -188 150 -399 236 -220 89 -269 114
-308 157 -62 65 -68 162 -19 303 32 90 75 158 213 340 93 123 172 246 172 269
0 8 -82 35 -150 50 -220 49 -414 19 -652 -100 -66 -33 -108 -48 -108 -41 0 7
13 33 28 58 80 126 263 222 514 270 219 42 451 46 565 11z m-1554 -157 c94
-24 136 -52 252 -165 177 -172 228 -199 440 -235 72 -12 130 -26 130 -30 0 -5
-22 -20 -49 -34 -41 -21 -67 -26 -150 -29 -156 -6 -286 33 -423 126 l-58 40
-100 -128 c-55 -71 -110 -148 -123 -173 -33 -64 -21 -84 108 -170 145 -97 230
-184 277 -283 34 -72 38 -88 41 -181 5 -114 -13 -214 -52 -298 l-23 -50 -6
140 c-6 158 -25 234 -77 315 -63 98 -141 150 -350 235 -214 87 -256 131 -229
242 22 88 95 216 238 413 l61 85 -72 24 c-143 47 -320 31 -500 -45 -33 -14
-62 -23 -65 -21 -10 10 106 116 152 139 152 76 444 118 578 83z m-236 -950
c32 -32 35 -39 30 -78 -5 -34 -14 -50 -54 -85 -121 -108 -338 -251 -575 -380
-60 -33 -78 -39 -87 -29 -8 10 60 84 287 310 270 270 301 297 331 297 24 0 42
-9 68 -35z m1322 -200 c90 -46 126 -168 70 -239 -23 -29 -319 -242 -559 -403
-213 -142 -439 -266 -458 -251 -10 9 -7 17 16 42 371 401 738 773 826 837 44
33 65 35 105 14z"/>
<path d="M2958 2806 c-76 -20 -122 -58 -155 -123 l-28 -58 -3 -277 -4 -278 61
0 61 0 0 185 0 185 70 0 70 0 0 55 0 55 -71 0 -72 0 6 37 c12 72 60 113 135
113 l42 0 0 54 c0 47 -3 54 -22 60 -29 7 -34 7 -90 -8z"/>
<path d="M7860 2809 c-82 -16 -157 -86 -180 -168 -5 -20 -10 -155 -10 -303 l0
-268 60 0 60 0 0 185 0 185 65 0 65 0 0 55 0 55 -65 0 -65 0 0 30 c0 73 53
120 135 120 l45 0 0 54 c0 47 -3 54 -22 60 -27 7 -29 7 -88 -5z"/>
<path d="M2240 2415 l0 -345 60 0 60 0 0 345 0 345 -60 0 -60 0 0 -345z"/>
<path d="M5260 2474 c0 -232 6 -264 59 -325 45 -54 100 -79 174 -79 l57 0 0
55 0 55 -51 0 c-44 0 -55 4 -84 33 -28 28 -34 43 -40 98 -4 35 -5 78 -3 94 l3
30 78 3 77 3 0 54 0 55 -80 0 -80 0 0 65 0 65 -55 0 -55 0 0 -206z"/>
<path d="M1442 2552 c-29 -11 -66 -32 -83 -48 -112 -108 -94 -319 35 -399 42
-26 61 -30 130 -33 73 -3 86 -1 136 25 130 68 168 255 77 376 -63 83 -189 116
-295 79z m153 -106 c41 -18 65 -52 72 -106 8 -56 -20 -126 -57 -145 -39 -20
-115 -19 -151 2 -57 34 -75 147 -33 211 31 47 107 64 169 38z"/>
<path d="M2044 2556 c-57 -18 -102 -54 -132 -106 -26 -43 -27 -52 -30 -212
l-4 -168 61 0 61 0 0 155 0 155 29 32 c25 28 37 33 88 38 l58 5 0 55 0 55 -45
2 c-25 1 -63 -4 -86 -11z"/>
<path d="M3252 2552 c-29 -11 -66 -32 -83 -48 -112 -108 -94 -319 35 -399 42
-26 61 -30 130 -33 73 -3 86 -1 136 25 130 68 168 255 77 376 -63 83 -189 116
-295 79z m153 -106 c41 -18 65 -52 72 -106 8 -56 -20 -126 -57 -145 -39 -20
-115 -19 -151 2 -57 34 -75 147 -33 211 31 47 107 64 169 38z"/>
<path d="M3854 2556 c-57 -18 -102 -54 -132 -106 -26 -43 -27 -52 -30 -212
l-4 -168 61 0 61 0 0 155 0 155 29 32 c25 28 37 33 88 38 l58 5 0 55 0 55 -45
2 c-25 1 -63 -4 -86 -11z"/>
<path d="M4182 2552 c-103 -37 -157 -119 -156 -237 2 -188 137 -279 357 -242
l47 8 0 61 0 60 -27 -8 c-16 -5 -65 -9 -110 -9 -72 0 -84 3 -107 24 -68 64
-54 199 24 231 31 13 171 10 203 -4 15 -7 17 -2 17 52 0 70 1 69 -120 77 -58
5 -87 1 -128 -13z"/>
<path d="M4670 2561 c-69 -21 -121 -65 -156 -131 -27 -51 -26 -181 3 -235 47
-89 125 -128 252 -127 48 1 100 5 116 10 28 8 30 12 33 60 l3 52 -89 -6 c-110
-8 -152 -1 -186 33 -42 42 -35 52 27 36 100 -27 206 5 255 77 20 29 23 44 20
88 -4 43 -11 59 -39 88 -51 53 -162 78 -239 55z m141 -121 c11 -6 19 -21 19
-35 0 -14 -8 -29 -19 -35 -26 -13 -120 -13 -159 1 -27 9 -30 14 -22 30 6 10
23 25 38 33 31 18 115 21 143 6z"/>
<path d="M5810 2561 c-82 -26 -151 -94 -169 -166 -6 -24 -11 -107 -11 -184 l0
-141 59 0 60 0 3 160 c3 158 3 160 30 187 22 22 39 27 88 31 l61 4 -3 57 -3
56 -45 2 c-25 1 -56 -2 -70 -6z"/>
<path d="M6132 2555 c-99 -31 -162 -120 -162 -228 0 -82 17 -130 62 -182 50
-57 107 -79 192 -73 54 3 71 9 104 35 l39 31 12 -34 c12 -33 13 -34 71 -34
l59 0 -15 43 c-8 23 -19 94 -23 157 -10 138 -28 187 -87 239 -66 58 -159 75
-252 46z m169 -121 c47 -42 64 -137 34 -194 -23 -45 -53 -60 -117 -60 -49 0
-62 4 -88 28 -69 61 -55 203 23 238 42 19 121 13 148 -12z"/>
<path d="M6760 2561 c-76 -25 -118 -61 -149 -131 -18 -39 -21 -66 -21 -202 l0
-158 60 0 60 0 0 150 c0 168 8 198 60 225 37 19 71 19 116 0 54 -22 64 -58 64
-230 l0 -145 60 0 60 0 0 149 c0 201 -23 262 -116 317 -48 28 -146 41 -194 25z"/>
<path d="M7294 2561 c-116 -30 -167 -143 -103 -225 29 -37 66 -54 156 -72 43
-9 86 -20 96 -25 23 -13 22 -36 -2 -49 -23 -12 -178 -13 -238 -1 l-43 8 0 -58
0 -57 68 -8 c89 -10 180 -8 233 6 87 24 137 110 108 187 -19 48 -51 70 -134
89 -131 30 -150 37 -153 61 -3 18 4 24 37 33 37 10 66 9 189 -6 l42 -5 0 54
c0 53 -1 55 -32 61 -55 12 -191 16 -224 7z"/>
<path d="M8161 2558 c-132 -38 -202 -185 -159 -332 17 -57 93 -131 149 -146
51 -14 132 -16 207 -5 l52 7 0 54 0 53 -97 -6 c-117 -7 -162 7 -188 58 -16 31
-16 32 1 25 55 -21 116 -27 166 -17 96 20 145 64 155 138 17 125 -134 215
-286 171z m150 -118 c25 -14 24 -42 -1 -65 -16 -15 -32 -17 -95 -13 -97 6
-111 19 -67 59 27 25 41 29 88 29 30 0 64 -5 75 -10z"/>
<path d="M8725 2561 c-83 -21 -145 -81 -170 -163 -10 -36 -15 -94 -15 -190 l0
-138 60 0 60 0 0 140 c0 159 11 199 59 224 16 9 51 16 76 16 l46 0 -3 58 -3
57 -40 2 c-22 1 -53 -2 -70 -6z"/>
<path d="M9017 2557 c-52 -15 -82 -38 -103 -79 -32 -61 -6 -151 53 -181 15 -8
64 -22 108 -31 99 -21 125 -32 125 -50 0 -32 -40 -39 -178 -33 l-133 6 3 -52
3 -52 40 -7 c22 -4 83 -8 135 -9 112 -2 164 15 210 67 57 66 33 170 -47 203
-16 6 -66 19 -112 30 -46 10 -90 26 -99 35 -15 15 -15 17 0 33 19 19 99 22
206 10 l62 -8 0 54 c0 53 -1 55 -32 61 -72 14 -194 16 -241 3z"/>
<path d="M450 2408 c0 -178 8 -215 58 -270 46 -51 85 -68 156 -68 70 0 101 12
141 55 l32 34 21 -28 c29 -40 80 -61 150 -61 51 0 67 5 108 33 32 21 56 48 74
82 23 46 25 60 24 170 -1 74 -7 135 -15 160 -14 40 -14 40 -73 43 l-58 3 7
-28 c29 -106 34 -243 11 -298 -17 -41 -42 -55 -96 -55 -31 0 -47 6 -64 25 -31
34 -36 63 -36 221 l0 134 -54 0 -54 0 -4 -152 c-5 -204 -17 -228 -113 -228
-36 0 -48 5 -69 31 -26 30 -26 33 -26 190 l0 159 -60 0 -60 0 0 -152z"/>
<path d="M2540 2520 c0 -47 -19 -99 -44 -119 -9 -8 -41 -19 -71 -25 l-55 -11
96 -147 96 -148 74 0 74 0 -76 115 -76 115 35 40 c39 42 67 119 67 182 l0 38
-60 0 -60 0 0 -40z"/>
<path d="M2319 1631 c-71 -23 -119 -91 -119 -169 0 -93 44 -142 168 -186 92
-33 118 -50 131 -88 36 -103 -28 -199 -134 -198 -35 1 -96 18 -157 45 -15 6
-18 2 -18 -19 0 -23 8 -31 46 -48 59 -26 150 -34 198 -18 82 27 126 90 126
180 0 93 -36 142 -128 176 -121 44 -152 62 -168 100 -32 77 12 165 91 180 24
4 56 1 89 -8 28 -8 58 -17 66 -19 9 -2 16 4 18 17 2 17 -6 25 -40 39 -51 20
-132 28 -169 16z"/>
<path d="M6809 1627 c-59 -22 -96 -54 -120 -104 -20 -41 -24 -67 -27 -193 -6
-219 20 -311 101 -360 69 -42 193 -35 269 15 l38 25 0 135 0 135 -85 0 c-84 0
-85 0 -85 -25 0 -24 3 -25 55 -25 l55 0 0 -99 0 -99 -43 -21 c-90 -44 -185
-18 -224 59 -21 41 -23 57 -23 218 0 196 7 223 68 270 30 23 45 27 101 27 48
-1 77 -7 109 -23 l42 -22 0 25 c0 21 -8 30 -46 46 -59 26 -139 33 -185 16z"/>
<path d="M7208 1624 c-41 -12 -48 -18 -48 -40 0 -21 4 -25 18 -19 90 35 159
30 193 -13 18 -23 20 -37 17 -94 -3 -60 -8 -73 -50 -135 -46 -68 -68 -123 -68
-175 0 -24 4 -28 29 -28 28 0 29 2 33 60 3 48 11 68 36 102 81 108 101 193 63
272 -38 77 -119 102 -223 70z"/>
<path d="M7548 1624 c-35 -11 -48 -20 -48 -34 0 -28 14 -32 54 -15 59 25 113
20 146 -13 64 -65 50 -145 -51 -281 -14 -20 -23 -49 -26 -95 -6 -66 -6 -66 21
-66 24 0 26 3 26 39 0 53 13 83 68 164 42 62 47 75 50 135 4 86 -17 128 -78
160 -50 25 -94 27 -162 6z"/>
<path d="M2620 1605 c0 -25 1 -25 90 -25 l90 0 0 -315 0 -315 30 0 30 0 0 315
0 315 90 0 c89 0 90 0 90 25 l0 25 -210 0 -210 0 0 -25z"/>
<path d="M3130 1290 l0 -340 25 0 25 0 0 340 0 340 -25 0 -25 0 0 -340z"/>
<path d="M3320 1290 l0 -340 150 0 150 0 0 25 0 25 -125 0 -125 0 0 315 0 315
-25 0 -25 0 0 -340z"/>
<path d="M3720 1290 l0 -340 150 0 150 0 0 25 0 25 -125 0 -125 0 0 315 0 315
-25 0 -25 0 0 -340z"/>
<path d="M4280 1289 l0 -341 128 4 c123 3 131 4 177 33 35 21 56 45 74 80 24
45 26 62 30 195 4 181 -6 233 -60 293 -53 61 -103 77 -241 77 l-108 0 0 -341z
m256 272 c78 -36 103 -100 104 -268 0 -126 -14 -194 -48 -235 -38 -44 -79 -58
-177 -58 l-85 0 0 290 0 290 83 0 c58 0 94 -6 123 -19z"/>
<path d="M4820 1291 l0 -341 25 0 25 0 0 150 0 150 65 0 65 0 71 -150 c68
-141 74 -150 100 -150 l28 0 -73 153 -73 153 35 20 c59 32 76 65 80 152 4 95
-15 136 -79 172 -38 21 -59 25 -156 28 l-113 4 0 -341z m225 275 c46 -19 75
-69 75 -126 0 -57 -16 -88 -59 -117 -28 -19 -47 -23 -112 -23 l-79 0 0 140 0
140 70 0 c39 0 86 -6 105 -14z"/>
<path d="M5300 1290 l0 -340 25 0 25 0 0 340 0 340 -25 0 -25 0 0 -340z"/>
<path d="M5436 1608 c4 -13 48 -165 99 -338 l91 -315 32 -3 c18 -2 32 -1 32 1
0 2 43 151 95 331 52 180 95 332 95 337 0 5 -11 9 -25 9 -19 0 -26 -7 -33 -32
-55 -195 -156 -536 -161 -545 -3 -6 -44 121 -91 283 l-85 294 -28 0 c-25 0
-27 -3 -21 -22z"/>
<path d="M5960 1290 l0 -340 30 0 30 0 0 340 0 340 -30 0 -30 0 0 -340z"/>
<path d="M6160 1290 l0 -340 25 0 25 0 1 278 0 277 140 -277 c126 -252 141
-278 164 -278 l25 0 0 340 0 340 -25 0 -25 0 -2 -277 -3 -278 -138 278 c-124
248 -141 277 -163 277 l-24 0 0 -340z"/>
<path d="M7269 994 c-16 -20 -1 -48 29 -52 27 -4 49 33 31 54 -15 19 -43 18
-60 -2z"/>
<path d="M7614 996 c-10 -26 1 -51 22 -54 27 -4 47 21 39 48 -7 24 -53 28 -61
6z"/>
</g>
</svg>
